<?xml version="1.0" standalone="no"?>
<!DOCTYPE svg PUBLIC "-//W3C//DTD SVG 20010904//EN"
 "http://www.w3.org/TR/2001/REC-SVG-20010904/DTD/svg10.dtd">
<svg version="1.0" xmlns="http://www.w3.org/2000/svg"
 width="500.000000pt" height="500.000000pt" viewBox="0 0 500.000000 500.000000"
 preserveAspectRatio="xMidYMid meet">

<g transform="translate(0.000000,500.000000) scale(0.100000,-0.100000)"
fill="#000000" stroke="none">
<path d="M4082 2904 c-119 -206 -402 -704 -402 -709 0 -3 16 -5 35 -5 42 0 20
-32 232 348 94 167 174 304 179 304 5 1 90 -145 189 -323 l181 -324 37 -3 c20
-2 37 0 37 4 0 10 -420 746 -435 763 -11 11 -20 1 -53 -55z"/>
<path d="M492 2503 l3 -298 38 -3 37 -3 0 300 0 301 -40 0 -40 0 2 -297z"/>
<path d="M829 2790 c-8 -5 -66 -65 -127 -134 -108 -120 -112 -126 -112 -170 0
-25 4 -46 9 -46 15 0 312 331 308 343 -5 15 -57 20 -78 7z"/>
<path d="M1290 2489 l0 -300 38 3 37 3 3 298 2 297 -40 0 -40 0 0 -301z"/>
<path d="M1384 2777 c-3 -9 -4 -26 -2 -39 3 -22 8 -23 105 -28 89 -4 105 -8
126 -28 30 -29 40 -71 26 -112 -16 -44 -54 -60 -147 -60 -88 0 -116 -12 -110
-51 3 -23 7 -24 74 -27 65 -3 71 -5 67 -22 -5 -18 104 -194 131 -212 19 -13
66 -9 72 7 8 19 -115 196 -145 211 -23 12 -22 12 10 19 44 9 95 48 116 88 24
48 22 136 -6 180 -39 64 -81 81 -203 86 -90 3 -109 1 -114 -12z"/>
<path d="M2049 2778 c0 -7 -1 -141 0 -298 l0 -285 36 -3 c28 -3 35 0 35 15 1
16 0 518 0 566 0 13 -8 17 -35 17 -21 0 -35 -5 -36 -12z"/>
<path d="M2142 2753 l3 -38 155 0 155 0 0 35 0 35 -158 3 -158 3 3 -38z"/>
<path d="M3003 2778 c-6 -7 -32 -67 -58 -133 -26 -66 -56 -138 -65 -160 -53
-120 -110 -271 -105 -282 5 -15 43 -17 64 -4 17 11 242 571 235 583 -8 13 -60
9 -71 -4z"/>
<path d="M3065 2708 l-16 -44 92 -229 c50 -127 97 -233 103 -237 17 -11 50
-10 63 3 8 8 -19 84 -97 277 -59 146 -112 268 -117 269 -6 2 -18 -16 -28 -39z"/>
<path d="M2140 2495 l0 -35 155 0 155 0 0 35 0 35 -155 0 -155 0 0 -35z"/>
<path d="M677 2502 c-10 -10 -17 -24 -17 -30 0 -9 50 -69 202 -239 23 -27 36
-33 68 -33 65 0 68 -5 -158 248 -36 39 -68 72 -72 72 -4 0 -14 -8 -23 -18z"/>
<path d="M2955 2413 c-8 -8 -15 -18 -15 -23 0 -5 -3 -15 -6 -24 -5 -14 8 -16
105 -16 100 0 111 2 111 18 0 10 -7 27 -15 40 -14 19 -24 22 -91 21 -51 -1
-79 -5 -89 -16z"/>
<path d="M2140 2235 l0 -35 160 0 160 0 0 35 0 35 -160 0 -160 0 0 -35z"/>
<path d="M3631 2114 c-12 -19 -21 -37 -21 -40 0 -2 232 -4 515 -4 283 0 515 3
515 6 0 4 -9 22 -21 40 l-21 34 -473 0 -473 0 -21 -36z"/>
</g>
</svg>
