<?xml version="1.0" standalone="no"?>
<!DOCTYPE svg PUBLIC "-//W3C//DTD SVG 20010904//EN"
 "http://www.w3.org/TR/2001/REC-SVG-20010904/DTD/svg10.dtd">
<svg version="1.0" xmlns="http://www.w3.org/2000/svg"
 width="500.000000pt" height="500.000000pt" viewBox="0 0 500.000000 500.000000"
 preserveAspectRatio="xMidYMid meet">

<g transform="translate(0.000000,500.000000) scale(0.100000,-0.100000)"
fill="#000000" stroke="none">
<path d="M1775 3309 c-396 -693 -721 -1265 -723 -1270 -2 -5 48 -9 120 -9
l123 0 397 713 c218 391 488 877 600 1079 111 202 205 367 208 367 3 0 95
-163 206 -362 110 -199 380 -685 600 -1079 l399 -718 123 0 c72 0 122 4 120 9
-7 22 -1443 2531 -1448 2531 -3 0 -329 -567 -725 -1261z"/>
<path d="M891 1763 l-60 -108 834 -3 c459 -1 1211 -1 1670 0 l834 3 -60 108
-61 107 -1548 0 -1548 0 -61 -107z"/>
<path d="M946 1351 c-5 -7 -10 -561 -6 -648 0 -8 15 -13 40 -13 l40 0 0 329 0
329 -22 6 c-32 8 -46 7 -52 -3z"/>
<path d="M1177 1200 l-137 -150 0 -50 c0 -28 4 -50 9 -50 8 0 148 150 309 331
24 27 41 53 37 59 -3 5 -23 10 -44 10 -36 0 -44 -7 -174 -150z"/>
<path d="M1836 1342 c-4 -6 -9 -554 -6 -649 0 -8 15 -13 40 -13 l40 0 -2 333
-3 332 -32 3 c-17 2 -34 -1 -37 -6z"/>
<path d="M1934 1326 c-3 -8 -4 -25 -2 -38 3 -22 7 -23 115 -28 107 -5 113 -6
142 -34 28 -26 31 -36 31 -87 0 -51 -3 -60 -30 -82 -31 -26 -73 -35 -195 -40
l-60 -2 0 -35 0 -35 85 -3 c47 -2 109 2 138 8 150 33 203 221 93 331 -46 46
-91 59 -214 59 -75 0 -99 -3 -103 -14z"/>
<path d="M2672 1008 l3 -333 40 0 40 0 0 330 0 330 -43 3 -42 3 2 -333z"/>
<path d="M2780 1300 l0 -40 175 0 175 0 0 40 0 40 -175 0 -175 0 0 -40z"/>
<path d="M3707 1253 c-20 -49 -68 -167 -107 -263 -39 -96 -75 -184 -80 -195
-47 -103 -45 -119 11 -113 33 3 35 7 70 93 20 50 78 192 128 316 50 125 91
231 91 238 0 6 -16 11 -39 11 l-38 0 -36 -87z"/>
<path d="M3833 1288 c-6 -7 -16 -30 -24 -50 -12 -36 -10 -43 86 -285 54 -136
103 -254 108 -260 11 -15 73 -18 81 -4 5 7 -25 92 -54 156 -5 11 -48 117 -96
235 -47 118 -87 216 -89 218 -1 1 -7 -3 -12 -10z"/>
<path d="M2780 1015 l0 -35 170 0 170 0 0 35 0 35 -170 0 -170 0 0 -35z"/>
<path d="M1140 1015 l-23 -24 24 -30 c13 -16 71 -84 129 -150 l105 -121 47 0
c27 0 48 3 48 8 0 4 -15 23 -33 43 -17 20 -84 96 -147 168 -63 72 -117 131
-120 131 -4 0 -17 -11 -30 -25z"/>
<path d="M2091 921 c-12 -8 0 -32 62 -125 l77 -116 45 0 c25 0 45 4 45 9 0 14
-129 203 -152 224 -22 19 -55 22 -77 8z"/>
<path d="M3675 898 c-7 -18 -11 -36 -9 -40 7 -12 232 -10 239 2 3 5 -1 23 -10
40 l-16 30 -95 0 -95 0 -14 -32z"/>
<path d="M2780 725 l0 -35 165 0 c91 0 168 0 173 0 4 0 8 15 10 35 l3 35 -175
0 -176 0 0 -35z"/>
</g>
</svg>
