<?xml version="1.0" encoding="UTF-8"?>
<svg version="1.1" xmlns="http://www.w3.org/2000/svg" width="500" height="500">
<path d="M0 0 C165 0 330 0 500 0 C500 165 500 330 500 500 C335 500 170 500 0 500 C0 335 0 170 0 0 Z " fill="#E3E3E3" transform="translate(0,0)"/>
<path d="M0 0 C52.25895141 0 52.25895141 0 62.24609375 8.15234375 C69.55994407 15.85713484 71.47351844 23.79336211 71.28125 34.125 C70.69951053 42.14007709 67.63818036 48.36181964 62 54 C60.05148442 55.47405434 58.09606004 56.73261486 56 58 C57.27999544 62.26455868 58.89639082 65.77784784 61.2578125 69.546875 C61.88300781 70.55621094 62.50820312 71.56554687 63.15234375 72.60546875 C63.80332031 73.64316406 64.45429688 74.68085938 65.125 75.75 C66.42323463 77.82565107 67.71771405 79.90365721 69.0078125 81.984375 C69.58160645 82.89928711 70.15540039 83.81419922 70.74658203 84.75683594 C72 87 72 87 72 89 C64.41 89 56.82 89 49 89 C46.85973568 85.33607132 44.72218489 81.67082417 42.59130859 78.00146484 C41.8653251 76.75316303 41.13779158 75.50576135 40.40869141 74.25927734 C39.36213798 72.4694574 38.32116617 70.67649488 37.28125 68.8828125 C36.33862305 67.26463623 36.33862305 67.26463623 35.37695312 65.61376953 C34 63 34 63 34 61 C29.38 61 24.76 61 20 61 C20 70.24 20 79.48 20 89 C13.4 89 6.8 89 0 89 C0 59.63 0 30.26 0 0 Z " fill="#030303" transform="translate(163,171)"/>
<path d="M0 0 C64.68 0 129.36 0 196 0 C196 7.26 196 14.52 196 22 C131.32 22 66.64 22 0 22 C0 14.74 0 7.48 0 0 Z " fill="#040404" transform="translate(40,299)"/>
<path d="M0 0 C64.35 0 128.7 0 195 0 C195 7.26 195 14.52 195 22 C130.65 22 66.3 22 0 22 C0 14.74 0 7.48 0 0 Z " fill="#040404" transform="translate(262,175)"/>
<path d="M0 0 C6.6 0 13.2 0 20 0 C24.49944917 8.99889835 24.49944917 8.99889835 26.33081055 13.69970703 C26.94746834 15.27403 26.94746834 15.27403 27.57658386 16.88015747 C28.22510063 18.55209671 28.22510063 18.55209671 28.88671875 20.2578125 C29.34802689 21.43729462 29.80933502 22.61677673 30.28462219 23.83200073 C31.50852156 26.96246812 32.72937299 30.09408498 33.94842529 33.22644043 C36.11050361 38.78045878 38.2795108 44.33177103 40.44921875 49.8828125 C40.91544647 51.07795471 41.38167419 52.27309692 41.86203003 53.50445557 C45.25574694 62.17727943 48.75146972 70.80434204 52.37565613 79.38357544 C52.72324478 80.21718597 53.07083344 81.05079651 53.42895508 81.90966797 C53.73400467 82.63185516 54.03905426 83.35404236 54.35334778 84.09811401 C55 86 55 86 55 89 C48.07 89 41.14 89 34 89 C32.02 84.38 30.04 79.76 28 75 C16.12 74.67 4.24 74.34 -8 74 C-8.33 75.65 -8.66 77.3 -9 79 C-10.22896369 82.38088404 -11.62523806 85.67396305 -13 89 C-19.93 89 -26.86 89 -34 89 C-33.27137214 84.62823285 -32.6408179 81.67088237 -31.04150391 77.71435547 C-30.4336908 76.19760979 -30.4336908 76.19760979 -29.81359863 74.65022278 C-29.37237671 73.56682114 -28.93115479 72.48341949 -28.4765625 71.3671875 C-28.0187439 70.22896042 -27.56092529 69.09073334 -27.0892334 67.91801453 C-25.85948288 64.86308857 -24.62461067 61.81029679 -23.38748932 58.75835037 C-22.11819956 55.62320175 -20.85577001 52.4852964 -19.59326172 49.34741211 C-18.09910447 45.6343566 -16.60460095 41.92144399 -15.10794067 38.20939636 C-11.40039525 29.01176393 -7.73750747 19.79783301 -4.125 10.5625 C-3.68623535 9.44149902 -3.2474707 8.32049805 -2.79541016 7.16552734 C-1.86197935 4.77765375 -0.93064782 2.3889596 0 0 Z " fill="#030303" transform="translate(409,231)"/>
<path d="M0 0 C0.87454834 0.00523682 1.74909668 0.01047363 2.65014648 0.01586914 C3.59438477 0.0190918 4.53862305 0.02231445 5.51147461 0.02563477 C6.50469727 0.03401367 7.49791992 0.04239258 8.52124023 0.05102539 C9.51833008 0.05553711 10.51541992 0.06004883 11.54272461 0.06469727 C14.01478872 0.07652532 16.48673541 0.0930069 18.95874023 0.11352539 C18.07041931 6.7768807 15.57091955 12.69799208 13.0859375 18.88916016 C12.27950235 20.90536885 11.49075107 22.92789325 10.70288086 24.95141602 C8.07707258 31.58054764 5.41478044 37.60834266 0.85400391 43.19042969 C-0.30568546 45.1407905 -0.30568546 45.1407905 0.59960938 47.46582031 C1.04812256 48.33956299 1.49663574 49.21330566 1.95874023 50.11352539 C2.45664063 51.09144043 2.95454102 52.06935547 3.4675293 53.0769043 C4.33716309 54.69218018 4.33716309 54.69218018 5.22436523 56.34008789 C5.54024597 56.928414 5.85612671 57.51674011 6.18157959 58.12289429 C7.18815759 59.99611533 8.19841643 61.86732252 9.20874023 63.73852539 C9.8717365 64.97147151 10.53449887 66.20454344 11.19702148 67.43774414 C15.09003653 74.67805823 19.01543961 81.90046928 22.95874023 89.11352539 C15.03874023 89.11352539 7.11874023 89.11352539 -1.04125977 89.11352539 C-1.92168945 87.41325195 -2.80211914 85.71297852 -3.70922852 83.96118164 C-4.88233748 81.69942756 -6.05551838 79.43771078 -7.22875977 77.17602539 C-7.8069043 76.05905273 -8.38504883 74.94208008 -8.98071289 73.79125977 C-11.94954282 68.07164957 -14.95389725 62.39365403 -18.18701172 56.81835938 C-19.04125977 55.11352539 -19.04125977 55.11352539 -19.04125977 53.11352539 C-24.32125977 53.11352539 -29.60125977 53.11352539 -35.04125977 53.11352539 C-35.04125977 64.99352539 -35.04125977 76.87352539 -35.04125977 89.11352539 C-41.64125977 89.11352539 -48.24125977 89.11352539 -55.04125977 89.11352539 C-55.04125977 60.07352539 -55.04125977 31.03352539 -55.04125977 1.11352539 C-48.44125977 1.11352539 -41.84125977 1.11352539 -35.04125977 1.11352539 C-35.04125977 12.33352539 -35.04125977 23.55352539 -35.04125977 35.11352539 C-24.61089594 34.84341799 -24.61089594 34.84341799 -15.04125977 31.11352539 C-11.49690148 24.94450259 -9.20637786 18.37193843 -6.85375977 11.67602539 C-6.15441018 9.69728491 -5.45271749 7.71937045 -4.74829102 5.74243164 C-4.29160034 4.44414429 -4.29160034 4.44414429 -3.82568359 3.11962891 C-2.66377884 0.14814701 -2.66377884 0.14814701 0 0 Z " fill="#020202" transform="translate(100.041259765625,170.886474609375)"/>
<path d="M0 0 C19.14 0 38.28 0 58 0 C58 5.28 58 10.56 58 16 C45.46 16 32.92 16 20 16 C20 22.27 20 28.54 20 35 C31.55 35 43.1 35 55 35 C55 40.61 55 46.22 55 52 C43.45 52 31.9 52 20 52 C20 58.27 20 64.54 20 71 C32.87 71 45.74 71 59 71 C59 76.61 59 82.22 59 88 C39.53 88 20.06 88 0 88 C0 58.96 0 29.92 0 0 Z " fill="#010101" transform="translate(281,232)"/>
<path d="M0 0 C3.50625 -0.0825 7.0125 -0.165 10.625 -0.25 C11.71893066 -0.28641602 12.81286133 -0.32283203 13.93994141 -0.36035156 C19.97825817 -0.42903174 23.42044691 -0.04428065 28 4 C30.88602816 7.46323379 31.53457148 10.48760085 31.35546875 15.0078125 C30.62149757 19.12127738 28.20128071 21.90012822 25.19824219 24.6496582 C22.45783196 26.33304436 20.77655191 26.34627587 17.578125 26.29296875 C16.65418945 26.28547607 15.73025391 26.2779834 14.77832031 26.27026367 C13.61397461 26.24295166 12.44962891 26.21563965 11.25 26.1875 C7.5375 26.125625 3.825 26.06375 0 26 C0 17.42 0 8.84 0 0 Z " fill="#E1E1E1" transform="translate(183,189)"/>
<path d="M0 0 C2.53303614 2.53303614 3.29380684 4.91112902 4.6015625 8.25 C4.8428891 8.86391602 5.0842157 9.47783203 5.33285522 10.11035156 C5.84128739 11.40721724 6.34713698 12.70509795 6.85058594 14.00390625 C7.62299157 15.99482317 8.4045816 17.98194703 9.1875 19.96875 C13 29.71943059 13 29.71943059 13 32 C4.75 32 -3.5 32 -12 32 C-8.625 20.75 -8.625 20.75 -6.73828125 16.2109375 C-6.34189453 15.25058594 -5.94550781 14.29023438 -5.53710938 13.30078125 C-5.13298828 12.33527344 -4.72886719 11.36976563 -4.3125 10.375 C-3.68891602 8.86873047 -3.68891602 8.86873047 -3.05273438 7.33203125 C-2.03945904 4.88619424 -1.02183204 2.4422715 0 0 Z " fill="#DBDBDB" transform="translate(419,257)"/>
</svg>
